<svg width="48" height="48" viewBox="0 0 48 48" fill="none" xmlns="http://www.w3.org/2000/svg">
<rect width="48" height="48" rx="24" fill="#F8614C"/>
<path d="M17.54 31.5201C16.93 31.5201 16.36 31.31 15.95 30.92C15.43 30.43 15.18 29.69 15.27 28.89L15.64 25.65C15.71 25.04 16.08 24.23 16.51 23.79L24.72 15.1C26.77 12.93 28.91 12.87 31.08 14.92C33.25 16.97 33.31 19.11 31.26 21.28L23.05 29.97C22.63 30.42 21.85 30.84 21.24 30.9401L18.02 31.49C17.85 31.5 17.7 31.5201 17.54 31.5201ZM27.93 14.91C27.16 14.91 26.49 15.39 25.81 16.11L17.6 24.8101C17.4 25.0201 17.17 25.5201 17.13 25.8101L16.76 29.05C16.72 29.38 16.8 29.65 16.98 29.82C17.16 29.99 17.43 30.05 17.76 30L20.98 29.4501C21.27 29.4001 21.75 29.14 21.95 28.93L30.16 20.24C31.4 18.92 31.85 17.7 30.04 16C29.24 15.23 28.55 14.91 27.93 14.91Z" fill="white"/>
<path d="M29.3399 22.9498C29.3199 22.9498 29.2899 22.9498 29.2699 22.9498C26.1499 22.6398 23.6399 20.2698 23.1599 17.1698C23.0999 16.7598 23.3799 16.3798 23.7899 16.3098C24.1999 16.2498 24.5799 16.5298 24.6499 16.9398C25.0299 19.3598 26.9899 21.2198 29.4299 21.4598C29.8399 21.4998 30.1399 21.8698 30.0999 22.2798C30.0499 22.6598 29.7199 22.9498 29.3399 22.9498Z" fill="white"/>
<path d="M33 34.75H15C14.59 34.75 14.25 34.41 14.25 34C14.25 33.59 14.59 33.25 15 33.25H33C33.41 33.25 33.75 33.59 33.75 34C33.75 34.41 33.41 34.75 33 34.75Z" fill="white"/>
</svg>
