<svg width="32" height="24" viewBox="0 0 32 24" fill="none" xmlns="http://www.w3.org/2000/svg">
<path d="M24.1179 0C24.1179 3.15172 23.4953 6.27259 22.2856 9.1844C21.0759 12.0962 19.3028 14.742 17.0677 16.9706C14.8325 19.1992 12.1789 20.967 9.25847 22.1731C6.33805 23.3792 3.20796 24 0.0469219 24V16.8C2.25965 16.8 4.45071 16.3655 6.49501 15.5212C8.5393 14.6769 10.3968 13.4394 11.9614 11.8794C13.5261 10.3194 14.7672 8.46735 15.614 6.42908C16.4608 4.39081 16.8966 2.20621 16.8966 0H24.1179Z" fill="#5AAF81"/>
<path d="M0 0H31.25V7.20468H0V0Z" fill="#5AAF81"/>
<path d="M24.024 24L24.024 0.0467836L31.25 0.0467833V24H24.024Z" fill="#5AAF81"/>
</svg>
