<svg width="88" height="24" viewBox="0 0 88 24" fill="none" xmlns="http://www.w3.org/2000/svg">
<path d="M24.1179 0C24.1179 3.15172 23.4953 6.27259 22.2856 9.1844C21.0759 12.0962 19.3028 14.742 17.0677 16.9706C14.8325 19.1992 12.1789 20.967 9.25847 22.1731C6.33805 23.3792 3.20796 24 0.0469219 24V16.8C2.25965 16.8 4.45071 16.3655 6.49501 15.5212C8.5393 14.6769 10.3968 13.4394 11.9614 11.8794C13.5261 10.3194 14.7672 8.46735 15.614 6.42908C16.4608 4.39081 16.8966 2.20621 16.8966 0H24.1179Z" fill="#5AAF81"/>
<path d="M0 0H31.25V7.20468H0V0Z" fill="#5AAF81"/>
<path d="M24.024 24L24.024 0.0467836L31.25 0.0467833V24H24.024Z" fill="#5AAF81"/>
<path d="M74.5063 22.6077L74.5759 18.9043L77.2065 16.2451H80.9227L77.4431 19.8928L75.8703 21.1598L74.5063 22.6077ZM71.8757 23.8608V13.5302H75.0213V23.8608H71.8757ZM77.3735 23.8608L75.2857 21.2155L77.2204 18.8347L81.1732 23.8608H77.3735Z" fill="#5AAF81"/>
<path d="M67.4046 24C66.5324 24 65.7576 23.8329 65.0802 23.4988C64.4029 23.1646 63.8693 22.7006 63.4796 22.1065C63.0992 21.5032 62.9089 20.8163 62.9089 20.046C62.9089 19.2756 63.0992 18.5934 63.4796 17.9993C63.8693 17.4053 64.4029 16.9412 65.0802 16.6071C65.7576 16.2729 66.5324 16.1058 67.4046 16.1058C68.3325 16.1058 69.1259 16.3054 69.7847 16.7045C70.4435 17.1036 70.8981 17.6559 71.1487 18.3613L68.7129 19.5587C68.5552 19.206 68.3603 18.9507 68.1284 18.7929C67.9057 18.6351 67.6598 18.5562 67.3907 18.5562C67.1587 18.5562 66.9407 18.6119 66.7365 18.7233C66.5417 18.8347 66.3839 19.0018 66.2633 19.2245C66.1519 19.438 66.0963 19.7118 66.0963 20.046C66.0963 20.3801 66.1519 20.6586 66.2633 20.8813C66.3839 21.1041 66.5417 21.2712 66.7365 21.3825C66.9407 21.4939 67.1587 21.5496 67.3907 21.5496C67.6598 21.5496 67.9057 21.4707 68.1284 21.3129C68.3603 21.1551 68.5552 20.8999 68.7129 20.5472L71.1487 21.7445C70.8981 22.4499 70.4435 23.0022 69.7847 23.4013C69.1259 23.8004 68.3325 24 67.4046 24Z" fill="#5AAF81"/>
<path d="M58.8944 23.8608V22.5103L58.6717 22.1483V19.5865C58.6717 19.2152 58.5557 18.9321 58.3237 18.7372C58.101 18.5423 57.7345 18.4449 57.2241 18.4449C56.8808 18.4449 56.5329 18.5005 56.1803 18.6119C55.8277 18.714 55.5261 18.8579 55.2756 19.0435L54.2734 16.9691C54.7188 16.6906 55.2524 16.4771 55.874 16.3286C56.4957 16.1801 57.1035 16.1058 57.6974 16.1058C59.0057 16.1058 60.0171 16.3982 60.7316 16.983C61.4554 17.5677 61.8172 18.4959 61.8172 19.7675V23.8608H58.8944ZM56.737 24C56.1153 24 55.5957 23.8933 55.1781 23.6798C54.7606 23.4663 54.4451 23.1832 54.2317 22.8305C54.0183 22.4685 53.9115 22.0694 53.9115 21.6331C53.9115 21.1412 54.0368 20.7235 54.2873 20.3801C54.5379 20.0367 54.9183 19.7768 55.4287 19.6004C55.9483 19.4241 56.6024 19.3359 57.3912 19.3359H58.9779V20.8535H57.8922C57.5582 20.8535 57.3123 20.9092 57.1545 21.0205C57.0061 21.1226 56.9319 21.2804 56.9319 21.4939C56.9319 21.6703 56.9968 21.8188 57.1267 21.9394C57.2659 22.0508 57.4515 22.1065 57.6834 22.1065C57.8969 22.1065 58.0917 22.0508 58.268 21.9394C58.4536 21.8188 58.5881 21.6331 58.6717 21.3825L59.0753 22.3154C58.9547 22.8815 58.6995 23.3039 58.3098 23.5823C57.9201 23.8608 57.3958 24 56.737 24Z" fill="#5AAF81"/>
<path d="M48.3611 23.8608V16.2451H51.3536V18.5423L50.8664 17.8879C51.0984 17.2939 51.4696 16.8484 51.9799 16.5514C52.4903 16.2544 53.1027 16.1058 53.8172 16.1058V18.8904C53.678 18.8718 53.5527 18.8579 53.4414 18.8486C53.3393 18.8393 53.2326 18.8347 53.1212 18.8347C52.648 18.8347 52.2583 18.96 51.9521 19.2106C51.6552 19.4519 51.5067 19.8742 51.5067 20.4776V23.8608H48.3611Z" fill="#5AAF81"/>
<path d="M41.6033 23.8608V16.6627H38.75V14.1149H47.7413V16.6627H44.888V23.8608H41.6033Z" fill="#5AAF81"/>
<path d="M84.8823 2.57569C85.4668 2.57569 85.9957 2.69636 86.469 2.93768C86.9422 3.16973 87.3134 3.53636 87.5824 4.03757C87.8608 4.53879 88 5.18851 88 5.98675V10.3306H84.8544V6.52973C84.8544 6.05636 84.7709 5.72222 84.6039 5.5273C84.4369 5.3231 84.2095 5.221 83.9219 5.221C83.7085 5.221 83.509 5.27205 83.3234 5.37415C83.1471 5.46697 83.0033 5.62476 82.8919 5.84752C82.7899 6.07028 82.7388 6.37194 82.7388 6.7525V10.3306H79.5933V0H82.7388V4.94255L81.9872 4.3021C82.2842 3.72663 82.6831 3.29503 83.1842 3.0073C83.6946 2.71956 84.2606 2.57569 84.8823 2.57569Z" fill="#5AAF81"/>
<path d="M76.8658 10.4698C75.8172 10.4698 75.0007 10.2192 74.4161 9.718C73.8315 9.20751 73.5393 8.42784 73.5393 7.379V1.00241H76.6848V7.35115C76.6848 7.58319 76.7451 7.76419 76.8658 7.89413C76.9957 8.02408 77.1534 8.08905 77.339 8.08905C77.6081 8.08905 77.8447 8.01944 78.0488 7.88021L78.8004 10.0661C78.5592 10.2053 78.2669 10.3074 77.9236 10.3724C77.5895 10.4373 77.2369 10.4698 76.8658 10.4698ZM72.4954 5.42982V3.13258H78.2437V5.42982H72.4954Z" fill="#5AAF81"/>
<path d="M67.6729 10.3306V0H70.8184V10.3306H67.6729Z" fill="#5AAF81"/>
<path d="M63.3905 10.3306V8.98012L63.1678 8.61813V6.05636C63.1678 5.68509 63.0518 5.40199 62.8199 5.20707C62.5972 5.01216 62.2307 4.9147 61.7203 4.9147C61.377 4.9147 61.029 4.97039 60.6764 5.08177C60.3238 5.18387 60.0223 5.32774 59.7717 5.51337L58.7696 3.43889C59.215 3.16044 59.7485 2.94696 60.3702 2.79845C60.9919 2.64994 61.5997 2.57569 62.1935 2.57569C63.5019 2.57569 64.5133 2.86807 65.2278 3.45282C65.9515 4.03757 66.3134 4.96575 66.3134 6.23735V10.3306H63.3905ZM61.2332 10.4698C60.6115 10.4698 60.0919 10.3631 59.6743 10.1496C59.2567 9.93614 58.9413 9.65305 58.7278 9.30034C58.5144 8.93835 58.4077 8.53923 58.4077 8.10299C58.4077 7.61105 58.533 7.19337 58.7835 6.84995C59.0341 6.50652 59.4145 6.24663 59.9248 6.07028C60.4445 5.89393 61.0986 5.80575 61.8873 5.80575H63.474V7.32332H62.3884C62.0544 7.32332 61.8085 7.37901 61.6507 7.49039C61.5023 7.59249 61.428 7.75028 61.428 7.96376C61.428 8.14012 61.493 8.28862 61.6229 8.40929C61.7621 8.52067 61.9477 8.57636 62.1796 8.57636C62.393 8.57636 62.5879 8.52067 62.7642 8.40929C62.9498 8.28862 63.0843 8.10299 63.1678 7.85238L63.5715 8.7852C63.4508 9.35139 63.1957 9.77371 62.806 10.0522C62.4162 10.3306 61.892 10.4698 61.2332 10.4698Z" fill="#5AAF81"/>
<path d="M54.0976 10.4698C53.1697 10.4698 52.3578 10.2981 51.6619 9.9547C50.9752 9.61128 50.4417 9.14255 50.0612 8.54851C49.6808 7.9452 49.4906 7.26763 49.4906 6.5158C49.4906 5.74542 49.6762 5.06321 50.0473 4.46917C50.4278 3.87514 50.9427 3.41105 51.5923 3.07691C52.2511 2.74276 52.9888 2.57569 53.8053 2.57569C54.5569 2.57569 55.2482 2.7242 55.8792 3.02121C56.5194 3.31823 57.0297 3.75912 57.4102 4.34387C57.7999 4.92862 57.9948 5.6526 57.9948 6.5158C57.9948 6.62719 57.9901 6.75249 57.9808 6.89172C57.9716 7.02166 57.9623 7.14233 57.953 7.25371H52.0933V5.73614H56.2828L55.0997 6.13989C55.0997 5.84288 55.044 5.59227 54.9327 5.38807C54.8306 5.17459 54.6868 5.01216 54.5012 4.90077C54.3156 4.78011 54.093 4.71978 53.8331 4.71978C53.5733 4.71978 53.346 4.78011 53.1511 4.90077C52.9656 5.01216 52.8217 5.17459 52.7197 5.38807C52.6176 5.59227 52.5666 5.84288 52.5666 6.13989V6.61326C52.5666 6.93813 52.6315 7.21658 52.7614 7.44862C52.8913 7.68067 53.0769 7.85702 53.3182 7.97768C53.5594 8.08907 53.8517 8.14476 54.195 8.14476C54.5476 8.14476 54.8353 8.09835 55.058 8.00553C55.2899 7.91271 55.5312 7.77349 55.7817 7.58785L57.4241 9.24465C57.0529 9.64376 56.5936 9.95006 56.0462 10.1635C55.508 10.3677 54.8585 10.4698 54.0976 10.4698Z" fill="#5AAF81"/>
<path d="M45.1242 0.584743H48.4089V10.3306H45.1242V0.584743ZM42.09 10.3306H38.8052V0.584743H42.09V10.3306ZM45.3469 6.73856H41.8673V4.03757H45.3469V6.73856Z" fill="#5AAF81"/>
</svg>
